<?xml version="1.0" standalone="no"?>
<!DOCTYPE svg PUBLIC "-//W3C//DTD SVG 20010904//EN"
 "http://www.w3.org/TR/2001/REC-SVG-20010904/DTD/svg10.dtd">
<svg version="1.0" xmlns="http://www.w3.org/2000/svg"
 width="384.000000pt" height="384.000000pt" viewBox="0 0 384.000000 384.000000"
 preserveAspectRatio="xMidYMid meet">
<metadata>
Created by potrace 1.14, written by Peter Selinger 2001-2017
</metadata>
<g transform="translate(0.000000,384.000000) scale(0.100000,-0.100000)"
fill="#000000" stroke="none">
<path d="M1769 3835 c-3 -2 -17 -6 -32 -9 -85 -15 -210 -117 -254 -208 -33
-65 -43 -133 -43 -284 l0 -134 -332 -1 c-183 0 -348 -2 -365 -5 -73 -9 -162
-68 -210 -139 -48 -71 -53 -111 -53 -407 0 -307 3 -323 60 -370 34 -28 60 -34
185 -42 160 -10 291 -97 357 -235 74 -156 28 -355 -108 -467 -81 -66 -165 -94
-287 -94 -85 0 -131 -14 -163 -51 -43 -50 -46 -71 -42 -380 3 -289 4 -295 28
-344 30 -62 91 -122 156 -155 l49 -25 311 0 311 0 36 28 c48 36 67 84 67 166
0 180 90 332 240 403 52 25 80 32 140 34 167 5 302 -73 375 -217 31 -60 43
-119 46 -224 2 -92 15 -123 66 -162 l36 -28 311 0 c307 0 312 0 358 24 84 41
142 108 172 195 14 42 16 100 16 393 l0 343 143 1 c159 1 173 2 237 26 100 36
174 107 224 213 28 59 31 74 31 161 0 90 -2 99 -38 172 -44 90 -114 157 -205
196 -51 22 -74 25 -224 29 l-168 4 -1 337 c0 185 -3 350 -5 366 -18 110 -139
231 -250 249 -16 2 -180 5 -365 5 l-337 1 -4 168 -3 169 -38 76 c-68 138 -189
216 -343 223 -45 2 -83 2 -85 -1z"/>
</g>
</svg>
